<?xml version="1.0" encoding="UTF-8" standalone="no"?>
<svg width="363px" height="61px" viewBox="0 0 363 61" version="1.1" xmlns="http://www.w3.org/2000/svg" xmlns:xlink="http://www.w3.org/1999/xlink" xmlns:sketch="http://www.bohemiancoding.com/sketch/ns">
    <!-- Generator: Sketch 3.5.2 (25235) - http://www.bohemiancoding.com/sketch -->
    <title>Untitled 3</title>
    <desc>Created with Sketch.</desc>
    <defs>
        <path id="path-1" d="M0.06,0.192 L362.477,0.192 L362.477,60.94 L0.06,60.94"></path>
    </defs>
    <g id="Page-1" stroke="none" stroke-width="1" fill="none" fill-rule="evenodd" sketch:type="MSPage">
        <g id="Houdini_white_color" sketch:type="MSLayerGroup">
            <g id="Group-4">
                <mask id="mask-2" sketch:name="Clip 2" fill="white">
                    <use xlink:href="#path-1"></use>
                </mask>
                <g id="Clip-2"></g>
                <path d="M0,2.651 L12.621,2.651 L12.621,25.351 L35.895,25.351 L35.895,2.651 L48.515,2.651 L48.515,60.017 L35.895,60.017 L35.895,36.988 L12.621,36.988 L12.621,60.017 L0,60.017 L0,2.651" id="Fill-1" fill="#FFFFFF" sketch:type="MSShapeGroup" mask="url(#mask-2)"></path>
                <path d="M89.94,38.3 L89.94,38.136 C89.94,31.662 85.269,26.007 78.385,26.007 C71.255,26.007 66.994,31.497 66.994,37.972 L66.994,38.136 C66.994,44.609 71.665,50.265 78.549,50.265 C85.679,50.265 89.94,44.773 89.94,38.3 L89.94,38.3 Z M54.701,38.3 L54.701,38.136 C54.701,25.515 64.863,15.271 78.549,15.271 C92.153,15.271 102.233,25.351 102.233,37.972 L102.233,38.136 C102.233,50.756 92.071,61 78.385,61 C64.781,61 54.701,50.92 54.701,38.3 L54.701,38.3 Z" id="Fill-3" fill="#FFFFFF" sketch:type="MSShapeGroup" mask="url(#mask-2)"></path>
            </g>
            <path d="M107.641,44.528 L107.641,16.091 L120.097,16.091 L120.097,40.594 C120.097,46.495 122.883,49.526 127.636,49.526 C132.39,49.526 135.422,46.495 135.422,40.594 L135.422,16.091 L147.878,16.091 L147.878,60.017 L135.422,60.017 L135.422,53.788 C132.554,57.476 128.866,60.836 122.556,60.836 C113.131,60.836 107.641,54.607 107.641,44.528" id="Fill-5" fill="#FFFFFF" sketch:type="MSShapeGroup"></path>
            <path d="M187.617,38.136 L187.617,37.972 C187.617,30.678 182.782,25.843 176.964,25.843 C171.145,25.843 166.234,30.596 166.234,37.972 L166.234,38.136 C166.234,45.43 171.145,50.265 176.964,50.265 C182.782,50.265 187.617,45.43 187.617,38.136 L187.617,38.136 Z M153.777,38.136 L153.777,37.972 C153.777,23.303 163.366,15.271 173.768,15.271 C180.405,15.271 184.503,18.304 187.453,21.827 L187.453,0.192 L199.91,0.192 L199.91,60.017 L187.453,60.017 L187.453,53.706 C184.421,57.804 180.241,60.836 173.768,60.836 C163.529,60.836 153.777,52.805 153.777,38.136 L153.777,38.136 Z" id="Fill-6" fill="#FFFFFF" sketch:type="MSShapeGroup"></path>
            <path d="M208.35,16.091 L220.806,16.091 L220.806,60.017 L208.35,60.017 L208.35,16.091 Z M208.021,0.192 L221.134,0.192 L221.134,11.255 L208.021,11.255 L208.021,0.192 Z" id="Fill-7" fill="#FFFFFF" sketch:type="MSShapeGroup"></path>
            <path d="M229.246,16.091 L241.703,16.091 L241.703,22.319 C244.571,18.631 248.259,15.271 254.569,15.271 C263.994,15.271 269.484,21.499 269.484,31.58 L269.484,60.017 L257.028,60.017 L257.028,35.513 C257.028,29.613 254.241,26.58 249.488,26.58 C244.735,26.58 241.703,29.613 241.703,35.513 L241.703,60.017 L229.246,60.017 L229.246,16.091" id="Fill-8" fill="#FFFFFF" sketch:type="MSShapeGroup"></path>
            <path d="M277.596,16.091 L290.052,16.091 L290.052,60.017 L277.596,60.017 L277.596,16.091 Z M277.268,0.192 L290.38,0.192 L290.38,11.255 L277.268,11.255 L277.268,0.192 Z" id="Fill-9" fill="#FFFFFF" sketch:type="MSShapeGroup"></path>
            <path d="M299.592,52.024 L299.592,60.017 L306.588,60.017 C303.189,58.082 300.788,55.141 299.592,52.024" id="Fill-10" fill="#E5703A" sketch:type="MSShapeGroup"></path>
            <path d="M328.953,43.689 C328.944,36.304 323.016,29.193 314.108,28.885 C307.796,28.667 302.885,30.982 299.592,34.402 L299.592,42.113 C301.831,35.643 308.002,32.676 313.172,32.728 C319.631,32.793 324.614,37.665 324.643,43.171 C324.67,48.434 322.465,52.309 316.515,53.264 C313.27,53.785 308.192,51.882 308.418,46.98 C308.535,44.452 310.503,43.025 312.759,43.128 C310.552,46.086 313.474,48.253 315.54,47.812 C318.098,47.265 319.14,44.994 319.14,43.232 C319.14,41.374 317.389,38.372 313.042,38.475 C307.664,38.603 304.28,42.471 304.166,47.254 C304.022,53.278 309.656,57.236 315.438,57.308 C323.928,57.414 328.964,51.845 328.953,43.689" id="Fill-11" fill="#E5703A" sketch:type="MSShapeGroup"></path>
            <path d="M299.592,16.089 L299.592,28.727 C303.369,25.828 308.286,23.952 314.108,23.956 C326.572,23.963 334.485,32.672 334.482,43.658 C334.479,51.291 330.917,57.031 325.34,60.017 L343.519,60.017 L343.519,16.089 L299.592,16.089" id="Fill-12" fill="#E5703A" sketch:type="MSShapeGroup"></path>
            <path d="M350.144,17.568 L347.927,17.568 L347.927,16.091 L353.961,16.091 L353.961,17.568 L351.745,17.568 L351.745,23.375 L350.144,23.375 L350.144,17.568" id="Fill-13" fill="#E5703A" sketch:type="MSShapeGroup"></path>
            <path d="M355.193,16.091 L356.92,16.091 L358.835,19.171 L360.75,16.091 L362.477,16.091 L362.477,23.375 L360.885,23.375 L360.885,18.619 L358.835,21.731 L358.793,21.731 L356.764,18.65 L356.764,23.375 L355.193,23.375 L355.193,16.091" id="Fill-14" fill="#E5703A" sketch:type="MSShapeGroup"></path>
        </g>
    </g>
</svg>